<svg width="32" height="32" viewBox="0 0 32 32" fill="none" xmlns="http://www.w3.org/2000/svg">
<g clip-path="url(#clip0_27_2)">
<path d="M32 0H0V32H32V0Z" fill="#61A8DE"/>
<path d="M25.1971 7.06376L3.79829 15.4026C3.10518 15.6728 3.14717 16.6674 3.86064 16.878L9.2983 18.4838L11.3276 24.9231C11.5396 25.5957 12.392 25.7996 12.8854 25.2958L15.6968 22.4252L21.2131 26.4742C21.8881 26.9698 22.8495 26.6016 23.0209 25.782L26.6744 8.31482C26.8533 7.45923 26.0115 6.74638 25.1971 7.06376ZM22.5142 10.9402L12.5746 19.7298C12.4755 19.8174 12.4125 19.9387 12.3977 20.0701L12.0151 23.472C12.0026 23.5829 11.8473 23.5976 11.8142 23.491L10.2397 18.4176C10.1676 18.1853 10.2616 17.9337 10.4683 17.8055L22.2059 10.5257C22.4758 10.3582 22.7522 10.7298 22.5142 10.9402Z" fill="white"/>
</g>
<defs>
<clipPath id="clip0_27_2">
<rect width="32" height="32" rx="16" fill="white"/>
</clipPath>
</defs>
</svg>
